<svg preserveAspectRatio="none" overflow="visible" style="display: block;" width="649.019" height="95.0562" viewBox="0 0 649.019 95.0562" fill="none" xmlns="http://www.w3.org/2000/svg">
<g id="Group">
<path id="Vector" d="M34.5339 12.5942L7.72641 92.0576C7.46323 92.9572 7.01205 93.6694 6.37288 94.2129C5.73371 94.7564 4.92535 95.0187 3.929 95.0187C2.66947 95.0187 1.69192 94.7001 1.01515 94.0817C0.338383 93.4632 0 92.5449 0 91.3829C0 91.0268 0.0375981 90.6145 0.131593 90.1647C0.225589 89.7149 0.357182 89.2651 0.545173 88.8153L29.6649 3.67331C30.1161 2.51134 30.7741 1.61176 31.62 0.974551C32.4848 0.356086 33.4435 0.0374827 34.5339 0.0374827C35.6242 0.0374827 36.583 0.356086 37.4477 0.974551C38.3125 1.61176 38.9517 2.51134 39.4028 3.67331L68.5038 88.553C68.6918 89.0965 68.8234 89.5837 68.9174 90.0335C69.0114 90.4833 69.0489 90.9331 69.0489 91.3829C69.0489 92.5449 68.7294 93.4445 68.109 94.0817C67.4698 94.7189 66.5299 95.0187 65.2703 95.0187C64.368 95.0187 63.5596 94.7564 62.8265 94.2129C62.1121 93.6694 61.6045 92.9572 61.3413 92.0576L34.5339 12.5942ZM56.1904 71.4234H12.8774L15.4528 64.4141H53.6149L56.1904 71.4234Z" fill="#222820"/>
<path id="Vector_2" d="M138.831 1.12448C139.508 0.41231 140.485 0.0374827 141.745 0.0374827C142.91 0.0374827 143.869 0.393569 144.584 1.12448C145.298 1.83665 145.674 2.82995 145.674 4.08562V90.7082C145.674 91.9639 145.279 92.9947 144.527 93.8193C143.756 94.6252 142.704 95.0375 141.35 95.0375C140.091 95.0375 139.113 94.7189 138.436 94.1004C137.76 93.4632 137.158 92.7136 136.613 91.814L91.5138 15.5553V91.1205C91.5138 92.2825 91.1754 93.2383 90.4987 93.9505C89.8219 94.6627 88.8444 95.0375 87.5848 95.0375C86.4193 95.0375 85.4605 94.6814 84.7462 93.9505C84.0318 93.2383 83.6558 92.2825 83.6558 91.1205V4.62912C83.6558 3.18603 84.0694 2.06155 84.8778 1.25567C85.6861 0.449793 86.8141 0.0374827 88.2616 0.0374827C89.1639 0.0374827 89.9723 0.299862 90.7055 0.843362C91.4198 1.38686 92.059 2.09903 92.6042 2.99862L137.816 79.5009V4.08562C137.816 2.82995 138.154 1.83665 138.831 1.12448Z" fill="#222820"/>
<path id="Vector_3" d="M225.175 1.12448C225.852 0.41231 226.829 0.0374827 228.089 0.0374827C229.255 0.0374827 230.213 0.393569 230.928 1.12448C231.642 1.83665 232.018 2.82995 232.018 4.08562V90.7082C232.018 91.9639 231.642 92.9947 230.871 93.8193C230.101 94.6252 229.048 95.0375 227.694 95.0375C226.435 95.0375 225.457 94.7189 224.78 94.1004C224.104 93.4819 223.502 92.7136 222.957 91.814L177.877 15.5741V91.1393C177.877 92.3012 177.538 93.2571 176.862 93.9692C176.185 94.6814 175.207 95.0562 173.948 95.0562C172.782 95.0562 171.823 94.7001 171.109 93.9692C170.395 93.2571 170.019 92.3012 170.019 91.1393V4.62912C170.019 3.18603 170.432 2.06155 171.241 1.25567C172.049 0.449793 173.177 0.0374827 174.624 0.0374827C175.527 0.0374827 176.335 0.299862 177.068 0.843362C177.783 1.38686 178.422 2.09903 178.967 2.99862L224.179 79.5009V4.08562C224.179 2.82995 224.517 1.83665 225.194 1.12448H225.175Z" fill="#222820"/>
<path id="Vector_4" d="M315.58 72.1543C314.001 77.4206 311.764 81.7499 308.887 85.1795C305.992 88.5905 302.533 91.1018 298.473 92.6761C294.412 94.2503 289.863 95.0375 284.806 95.0375C279.749 95.0375 275.199 94.2503 271.139 92.6761C267.078 91.1018 263.6 88.6092 260.724 85.1795C257.829 81.7686 255.611 77.4206 254.032 72.1543C252.453 66.8879 251.663 60.5721 251.663 53.188V41.8495C251.663 34.4654 252.453 28.1495 254.032 22.8832C255.611 17.6169 257.848 13.3064 260.724 9.93293C263.619 6.55948 267.078 4.06688 271.139 2.43638C275.199 0.82462 279.749 1.04532e-10 284.806 1.04532e-10C289.863 1.04532e-10 294.412 0.805879 298.473 2.43638C302.533 4.04814 306.011 6.55948 308.887 9.93293C311.782 13.3064 314.001 17.6169 315.58 22.8832C317.159 28.1495 317.948 34.4654 317.948 41.8495V53.188C317.948 60.5721 317.159 66.8879 315.58 72.1543ZM259.483 53.2067C259.483 59.5038 260.085 64.8264 261.307 69.1931C262.529 73.5599 264.24 77.102 266.458 79.857C268.676 82.5932 271.327 84.5985 274.447 85.8542C277.568 87.1099 281.008 87.7471 284.806 87.7471C288.603 87.7471 292.043 87.1099 295.164 85.8542C298.285 84.5985 300.935 82.5932 303.154 79.857C305.372 77.1207 307.083 73.5599 308.305 69.1931C309.527 64.8264 310.128 59.5038 310.128 53.2067V41.8682C310.128 35.5711 309.527 30.2486 308.305 25.8818C307.083 21.5151 305.372 17.973 303.154 15.218C300.935 12.4818 298.285 10.4764 295.164 9.22075C292.043 7.96508 288.603 7.32788 284.806 7.32788C281.008 7.32788 277.568 7.96508 274.447 9.22075C271.327 10.4764 268.676 12.4818 266.458 15.218C264.24 17.9542 262.529 21.5151 261.307 25.8818C260.085 30.2486 259.483 35.5711 259.483 41.8682V53.2067Z" fill="#222820"/>
<path id="Vector_5" d="M357.013 92.8073C352.915 91.3267 349.418 89.0028 346.523 85.8542C343.628 82.7057 341.429 78.6763 339.887 73.7848C338.345 68.8745 337.594 63.0085 337.594 56.1679V3.95443C337.594 2.79246 337.951 1.83665 338.684 1.12448C339.417 0.41231 340.357 0.0374827 341.523 0.0374827C342.782 0.0374827 343.76 0.393569 344.436 1.12448C345.113 1.83665 345.452 2.79246 345.452 3.95443V56.1679C345.452 66.8692 347.632 74.8155 352.012 79.9882C356.393 85.1608 362.634 87.7471 370.755 87.7471C378.876 87.7471 385.23 85.1608 389.573 79.9882C393.897 74.8155 396.077 66.8692 396.077 56.1679V3.95443C396.077 2.79246 396.416 1.83665 397.093 1.12448C397.769 0.41231 398.747 0.0374827 400.006 0.0374827C401.172 0.0374827 402.131 0.393569 402.845 1.12448C403.559 1.83665 403.935 2.79246 403.935 3.95443V56.1679C403.935 63.0085 403.165 68.8745 401.642 73.7848C400.1 78.695 397.901 82.7057 395.006 85.8542C392.111 89.0028 388.614 91.3267 384.516 92.8073C380.418 94.2878 375.831 95.0375 370.774 95.0375C365.717 95.0375 361.149 94.2878 357.032 92.8073H357.013Z" fill="#222820"/>
<path id="Vector_6" d="M483.418 1.12448C484.095 0.41231 485.072 0.0374827 486.332 0.0374827C487.497 0.0374827 488.456 0.393569 489.17 1.12448C489.885 1.83665 490.261 2.82995 490.261 4.08562V90.7082C490.261 91.9639 489.866 92.9947 489.114 93.8193C488.343 94.6252 487.29 95.0375 485.937 95.0375C484.677 95.0375 483.7 94.7189 483.023 94.1004C482.346 93.4632 481.745 92.7136 481.2 91.814L436.119 15.5741V91.1393C436.119 92.3012 435.781 93.2571 435.104 93.9692C434.427 94.6814 433.45 95.0562 432.19 95.0562C431.025 95.0562 430.066 94.7001 429.352 93.9692C428.637 93.2571 428.261 92.3012 428.261 91.1393V4.62912C428.261 3.18603 428.675 2.06155 429.483 1.25567C430.292 0.449793 431.42 0.0374827 432.867 0.0374827C433.77 0.0374827 434.578 0.299862 435.311 0.843362C436.025 1.38686 436.665 2.09903 437.21 2.99862L482.421 79.5009V4.08562C482.421 2.82995 482.76 1.83665 483.437 1.12448H483.418Z" fill="#222820"/>
<path id="Vector_7" d="M529.306 92.6761C525.208 91.1018 521.712 88.6467 518.817 85.3295C515.921 82.0122 513.722 77.7017 512.18 72.4354C510.639 67.1691 509.887 60.7595 509.887 53.2067V41.8682C509.887 34.3154 510.658 27.9059 512.18 22.6396C513.722 17.3733 515.921 13.0815 518.817 9.74551C521.712 6.40955 525.208 3.97317 529.306 2.3989C533.405 0.82462 537.992 0.0374827 543.048 0.0374827C548.82 0.0374827 553.651 0.843362 557.524 2.47386C561.396 4.08562 564.611 6.16591 567.13 8.67725C569.649 11.1886 571.51 13.9811 572.676 17.0359C573.841 20.0907 574.518 23.0706 574.706 25.9381C574.706 27.3811 574.368 28.4307 573.691 29.1053C573.014 29.78 572.093 30.1174 570.909 30.1174C569.912 30.1174 569.123 29.7988 568.54 29.1803C567.957 28.5431 567.562 27.6997 567.393 26.6127C566.134 19.6784 563.483 14.7307 559.479 11.7696C555.456 8.80844 549.985 7.30913 543.03 7.30913C539.063 7.30913 535.51 7.90886 532.408 9.12705C529.288 10.3452 526.637 12.3131 524.419 15.0681C522.2 17.8043 520.546 21.3839 519.418 25.7881C518.29 30.1923 517.726 35.5524 517.726 41.8495V53.188C517.726 59.4851 518.309 64.8451 519.493 69.2494C520.659 73.6536 522.332 77.2332 524.494 79.9694C526.656 82.7057 529.306 84.6922 532.408 85.9104C535.51 87.1286 539.063 87.7284 543.03 87.7284C546.733 87.7284 549.985 87.2786 552.768 86.379C555.569 85.4794 557.975 84.1675 560.005 82.462C562.036 80.7566 563.633 78.6013 564.818 75.9775C565.983 73.3725 566.81 70.3551 567.262 66.9442C567.356 65.8572 567.732 65.0138 568.408 64.3766C569.085 63.7394 569.912 63.4395 570.909 63.4395C572.074 63.4395 572.977 63.8331 573.616 64.5828C574.255 65.3512 574.518 66.3632 574.424 67.6189C574.067 72.0231 573.089 75.9213 571.51 79.2947C569.931 82.6682 567.807 85.5169 565.156 87.8595C562.487 90.2022 559.291 91.9826 555.55 93.1821C551.809 94.4003 547.635 95 543.03 95C537.973 95 533.405 94.2129 529.288 92.6386L529.306 92.6761Z" fill="#222820"/>
<path id="Vector_8" d="M645.372 0.974551C646.462 0.974551 647.327 1.3119 648.004 1.98659C648.68 2.66127 649.019 3.54212 649.019 4.61038C649.019 5.77234 648.68 6.67193 648.004 7.30913C647.327 7.94634 646.443 8.2462 645.372 8.2462H600.968V42.243H641.311C642.401 42.243 643.266 42.5617 643.943 43.1801C644.62 43.8173 644.958 44.7169 644.958 45.8789C644.958 46.9659 644.62 47.828 643.943 48.5027C643.266 49.1774 642.383 49.5147 641.311 49.5147H600.968V86.7538H645.372C646.462 86.7538 647.327 87.0724 648.004 87.6909C648.68 88.3281 649.019 89.2277 649.019 90.3896C649.019 91.4766 648.68 92.3387 648.004 93.0134C647.327 93.6881 646.443 94.0255 645.372 94.0255H597.058C595.893 94.0255 594.934 93.6694 594.219 92.9384C593.505 92.2263 593.129 91.2705 593.129 90.1085V4.8915C593.129 3.72953 593.486 2.77372 594.219 2.06155C594.934 1.34938 595.893 0.974551 597.058 0.974551H645.372Z" fill="#222820"/>
</g>
</svg>
